# xmcd
# 
# Track frame offsets:
#     150
#     14062
#     29314
#     42987
#     54721
#     68241
#     87318
#     101324
#     117148
#     138984
#     155152
# 
# Disc length: 2281
# 
# Revision: 0
# Processed by: cddbd v1.5.2PL0 Copyright (c) Steve Scherf et al.
# Submitted via: fre:ac v1.0.27
# 
DISCID=9408e70b
DTITLE=Merle Haggard - The Epic Years: The Box Set Series- cd 2 of 4
DYEAR=2013
DGENRE=Country
TTITLE0=This Cold War With You
TTITLE1=Making Believe- w/George Jones
TTITLE2=That's The Way Love Goes
TTITLE3=Good Old American Guest
TTITLE4=Big City
TTITLE5=Are The Good Times Really Over (I Wish A Buck Was Still Silver)
TTITLE6=My Favorite Memory
TTITLE7=I Always Get Lucky With You
TTITLE8=Going Where The Lonely Go
TTITLE9=What Am I Gonna Do (With The Rest Of My Life)
TTITLE10=Someday When Things Are Good
EXTD=
EXTT0=
EXTT1=
EXTT2=
EXTT3=
EXTT4=
EXTT5=
EXTT6=
EXTT7=
EXTT8=
EXTT9=
EXTT10=
PLAYORDER=
